<?xml version="1.0" encoding="UTF-8" standalone="no"?>
<svg
   xmlns:dc="http://purl.org/dc/elements/1.1/"
   xmlns:cc="http://creativecommons.org/ns#"
   xmlns:rdf="http://www.w3.org/1999/02/22-rdf-syntax-ns#"
   xmlns:svg="http://www.w3.org/2000/svg"
   xmlns="http://www.w3.org/2000/svg"
   viewBox="0 0 211.65067 75.593331"
   height="75.59333"
   width="211.65067"
   xml:space="preserve"
   id="svg2"
   version="1.1">
  <metadata
     id="metadata8">
    <rdf:RDF>
      <cc:Work
         rdf:about="">
        <dc:format>image/svg+xml</dc:format>
        <dc:type
           rdf:resource="http://purl.org/dc/dcmitype/StillImage" />
        <dc:title></dc:title>
      </cc:Work>
    </rdf:RDF>
  </metadata>
  <defs
     id="defs6">
    <clipPath
       id="clipPath20"
       clipPathUnits="userSpaceOnUse">
      <path
         id="path18"
         d="M 0,0 H 159 V 57 H 0 Z" />
    </clipPath>
  </defs>
  <g
     transform="matrix(1.3333333,0,0,-1.3333333,0,75.591199)"
     id="g10">
    <g
       id="g12">
      <g
         transform="translate(0,-0.306599)"
         id="g14">
        <g
           id="g16" />
        <g
           id="g46">
          <g
             id="g44"
             clip-path="url(#clipPath20)">
            <g
               id="g42">
              <path
                 id="path22"
                 style="fill:#123c75;fill-opacity:1;fill-rule:nonzero;stroke:none"
                 d="m 5.668,51.332 h 153.07 V 0.305 H 5.668 Z" />
              <path
                 id="path24"
                 style="fill:#6ac2ee;fill-opacity:1;fill-rule:nonzero;stroke:none"
                 d="M 0,57 V 0.305 h 5.668 v 51.027 h 153.07 V 57 H 0" />
              <path
                 id="path26"
                 style="fill:#ffffff;fill-opacity:1;fill-rule:nonzero;stroke:none"
                 d="m 17.008,34.324 h 5.07 v -5.859 h 0.047 l 4.52,5.859 h 6.25 l -5.973,-6.648 6.937,-10.364 h -6.316 l -4.059,6.626 -1.406,-1.594 v -5.032 h -5.07 v 17.012" />
              <path
                 id="path28"
                 style="fill:#ffffff;fill-opacity:1;fill-rule:nonzero;stroke:none"
                 d="m 49.078,23.895 c 0,-4.715 -2.465,-6.977 -7.492,-6.977 -5.027,0 -7.516,2.262 -7.516,6.977 v 10.429 h 5.075 v -9.265 c 0,-1.739 0,-3.903 2.464,-3.903 2.399,0 2.399,2.164 2.399,3.903 v 9.265 h 5.07 V 23.895" />
              <path
                 id="path30"
                 style="fill:#ffffff;fill-opacity:1;fill-rule:nonzero;stroke:none"
                 d="m 56.52,34.324 h 5.07 V 21.676 h 7.156 V 17.312 H 56.52 v 17.012" />
              <path
                 id="path32"
                 style="fill:#ffffff;fill-opacity:1;fill-rule:nonzero;stroke:none"
                 d="m 70.301,34.324 h 13.5 v -4.359 h -8.473 v -2.121 h 7.695 v -4.051 h -7.695 v -2.117 h 8.719 V 17.312 H 70.301 v 17.012" />
              <path
                 id="path34"
                 style="fill:#ffffff;fill-opacity:1;fill-rule:nonzero;stroke:none"
                 d="m 100.359,23.895 c 0,-4.715 -2.464,-6.977 -7.492,-6.977 -5.023,0 -7.515,2.262 -7.515,6.977 v 10.429 h 5.07 v -9.265 c 0,-1.739 0,-3.903 2.469,-3.903 2.398,0 2.398,2.164 2.398,3.903 v 9.265 h 5.07 V 23.895" />
              <path
                 id="path36"
                 style="fill:#ffffff;fill-opacity:1;fill-rule:nonzero;stroke:none"
                 d="m 111.66,17.312 h -5.672 l -4.91,17.012 h 5.117 l 2.7,-10.316 h 0.046 l 2.649,10.316 h 5.211 L 111.66,17.312" />
              <path
                 id="path38"
                 style="fill:#ffffff;fill-opacity:1;fill-rule:nonzero;stroke:none"
                 d="m 117.52,34.324 h 13.496 v -4.359 h -8.477 v -2.121 h 7.699 v -4.051 h -7.699 v -2.117 h 8.727 V 17.312 H 117.52 v 17.012" />
              <path
                 id="path40"
                 style="fill:#ffffff;fill-opacity:1;fill-rule:nonzero;stroke:none"
                 d="m 132.578,34.324 h 5.188 l 4.793,-9.101 h 0.046 v 9.101 h 4.797 V 17.312 h -4.933 l -5.051,9.293 h -0.047 v -9.293 h -4.793 v 17.012" />
            </g>
          </g>
        </g>
      </g>
    </g>
  </g>
</svg>
